<svg width="58" height="58" viewBox="0 0 58 58" fill="none" xmlns="http://www.w3.org/2000/svg">
<path d="M40.6897 11.0824L46.9168 17.3095M44.6935 5.59674L27.8488 22.4413C26.9797 23.3106 26.3871 24.4178 26.1459 25.6232L24.5882 33.4118L32.3768 31.8541C33.5821 31.6129 34.6894 31.0203 35.5585 30.1512L52.4032 13.3066C54.5323 11.1776 54.5323 7.72577 52.4032 5.59676C50.2741 3.46776 46.8223 3.46774 44.6935 5.59674Z" stroke="white" stroke-width="6.23999" stroke-linecap="round" stroke-linejoin="round"/>
<path d="M48.1176 39.2941V48.1176C48.1176 51.3665 45.4841 54 42.2353 54H9.88235C6.63362 54 4 51.3665 4 48.1176V15.7647C4 12.516 6.63362 9.88235 9.88235 9.88235H18.7059" stroke="white" stroke-width="6.23999" stroke-linecap="round" stroke-linejoin="round"/>
</svg>
