<svg width="50" height="50" viewBox="0 0 50 50" fill="none" xmlns="http://www.w3.org/2000/svg">
<path d="M30.8737 24.9964L48.7756 7.13617C49.5596 6.35222 50 5.28895 50 4.18027C50 3.07159 49.5596 2.00833 48.7756 1.22437C47.9917 0.44042 46.9284 0 45.8197 0C44.7111 0 43.6478 0.44042 42.8638 1.22437L25.0036 19.1263L7.14327 1.22437C6.35932 0.44042 5.29605 -8.26028e-09 4.18738 0C3.0787 8.26029e-09 2.01543 0.44042 1.23148 1.22437C0.447525 2.00833 0.00710499 3.07159 0.00710498 4.18027C0.00710497 5.28895 0.447525 6.35222 1.23148 7.13617L19.1334 24.9964L1.23148 42.8567C0.841264 43.2438 0.531545 43.7042 0.320183 44.2115C0.108821 44.7189 0 45.263 0 45.8126C0 46.3622 0.108821 46.9064 0.320183 47.4137C0.531545 47.921 0.841264 48.3815 1.23148 48.7685C1.6185 49.1587 2.07896 49.4685 2.58629 49.6798C3.09362 49.8912 3.63778 50 4.18738 50C4.73697 50 5.28113 49.8912 5.78846 49.6798C6.29579 49.4685 6.75625 49.1587 7.14327 48.7685L25.0036 30.8666L42.8638 48.7685C43.2509 49.1587 43.7113 49.4685 44.2186 49.6798C44.726 49.8912 45.2701 50 45.8197 50C46.3693 50 46.9135 49.8912 47.4208 49.6798C47.9281 49.4685 48.3886 49.1587 48.7756 48.7685C49.1658 48.3815 49.4756 47.921 49.6869 47.4137C49.8983 46.9064 50.0071 46.3622 50.0071 45.8126C50.0071 45.263 49.8983 44.7189 49.6869 44.2115C49.4756 43.7042 49.1658 43.2438 48.7756 42.8567L30.8737 24.9964Z" fill="white"/>
</svg>
