<svg width="50" height="50" viewBox="0 0 50 50" fill="none" xmlns="http://www.w3.org/2000/svg">
<path d="M48.2143 3.12502H34.8214L33.7723 1.29884C33.5501 0.908429 33.2078 0.58002 32.7838 0.350562C32.3599 0.121105 31.8712 -0.0002957 31.3728 1.71218e-05H18.6161C18.1187 -0.00165578 17.6309 0.119292 17.2085 0.349005C16.7861 0.578717 16.4462 0.907902 16.2277 1.29884L15.1786 3.12502H1.78571C1.31211 3.12502 0.85791 3.28964 0.523024 3.58266C0.188137 3.87569 0 4.27311 0 4.68752L0 7.81251C0 8.22691 0.188137 8.62434 0.523024 8.91737C0.85791 9.21039 1.31211 9.37501 1.78571 9.37501H48.2143C48.6879 9.37501 49.1421 9.21039 49.477 8.91737C49.8119 8.62434 50 8.22691 50 7.81251V4.68752C50 4.27311 49.8119 3.87569 49.477 3.58266C49.1421 3.28964 48.6879 3.12502 48.2143 3.12502ZM5.9375 45.6055C6.02267 46.7955 6.62295 47.9124 7.61613 48.7289C8.60932 49.5453 9.92076 49.9998 11.2835 50H38.7165C40.0792 49.9998 41.3907 49.5453 42.3839 48.7289C43.3771 47.9124 43.9773 46.7955 44.0625 45.6055L46.4286 12.5H3.57143L5.9375 45.6055Z" fill="white"/>
</svg>
